<?xml version="1.0" encoding="utf-8"?>
<!-- Generator: Adobe Illustrator 20.0.0, SVG Export Plug-In . SVG Version: 6.00 Build 0)  -->
<svg version="1.1" id="Layer_1" xmlns="http://www.w3.org/2000/svg" xmlns:xlink="http://www.w3.org/1999/xlink" x="0px" y="0px"
	 viewBox="0 0 42 42" style="enable-background:new 0 0 42 42;" xml:space="preserve">
<style type="text/css">
	.st0{fill:#392E50;}
</style>
<path class="st0" d="M16.7,41.1H6c-0.3,0-0.5-0.2-0.5-0.5V1c0-0.3,0.2-0.5,0.5-0.5h10.7c0.3,0,0.5,0.2,0.5,0.5v39.6
	C17.2,40.9,17,41.1,16.7,41.1z"/>
<path class="st0" d="M36,41.5H25.3c-0.3,0-0.5-0.2-0.5-0.5V1.4c0-0.3,0.2-0.5,0.5-0.5H36c0.3,0,0.5,0.2,0.5,0.5V41
	C36.5,41.2,36.3,41.5,36,41.5z"/>
</svg>
